<svg xmlns="http://www.w3.org/2000/svg" xmlns:xlink="http://www.w3.org/1999/xlink" viewBox="0,0,256,256" width="48px" height="48px" fill-rule="nonzero"><g fill="#0e0e0e" fill-rule="nonzero" stroke="none" stroke-width="1" stroke-linecap="butt" stroke-linejoin="miter" stroke-miterlimit="10" stroke-dasharray="" stroke-dashoffset="0" font-family="none" font-weight="none" font-size="none" text-anchor="none" style="mix-blend-mode: normal"><path d="M0,256v-256h256v256z" id="bgRectangle"></path></g><g fill="#faf7f7" fill-rule="nonzero" stroke="none" stroke-width="1" stroke-linecap="butt" stroke-linejoin="miter" stroke-miterlimit="10" stroke-dasharray="" stroke-dashoffset="0" font-family="none" font-weight="none" font-size="none" text-anchor="none" style="mix-blend-mode: normal"><g transform="scale(5.33333,5.33333)"><path d="M24.557,26.203h4.917c1.398,0 2.284,-0.77 2.284,-2.006c0,-1.166 -0.886,-2.006 -2.284,-2.006h-4.917c-0.163,0 -0.303,0.14 -0.303,0.28v3.453c0.023,0.162 0.14,0.279 0.303,0.279z"></path><path d="M24.557,34.158h5.08c1.561,0 2.494,-0.793 2.494,-2.193c0,-1.213 -0.886,-2.193 -2.494,-2.193h-5.08c-0.163,0 -0.303,0.14 -0.303,0.28v3.803c0.023,0.186 0.14,0.303 0.303,0.303z"></path><path d="M42.548,4.086l-14.542,14.511h2.377c3.705,0 5.896,2.333 5.896,4.876c0,2.006 -1.352,3.476 -2.796,4.129c-0.233,0.093 -0.233,0.42 0.023,0.513c1.678,0.653 2.866,2.403 2.866,4.456c0,2.893 -1.934,5.202 -5.686,5.202h-10.3c-0.163,0 -0.303,-0.14 -0.303,-0.28v-10.987l-15.964,15.911c-0.209,0.21 -0.07,0.583 0.233,0.583h38.382c0.14,0 0.256,-0.117 0.256,-0.257v-38.447c0.07,-0.256 -0.256,-0.396 -0.442,-0.21z"></path></g></g></svg>